<svg xmlns="http://www.w3.org/2000/svg" viewBox="0 0 361.39 512" id="MicrosoftExcelFile"><g data-name="Layer 2" fill="#1a1d24" class="color000000 svgShape"><g data-name="Microsoft Excel file" fill="#1a1d24" class="color000000 svgShape"><path fill="#f4ce92" d="M349.58,90.29H281.1a10,10,0,0,1-10-10V11.81a10,10,0,0,1,20,0V70.29h58.48a10,10,0,0,1,0,20Z" class="colorffbb04 svgShape"></path><path fill="#696969" d="M331.31 512H30.08A30.12 30.12 0 010 481.92V413.18a10 10 0 0120 0v68.74A10.09 10.09 0 0030.08 492H331.31a10.09 10.09 0 0010.08-10.08V413.18a10 10 0 1120 0v68.74A30.12 30.12 0 01331.31 512zM351.39 343.11a10 10 0 01-10-10V88.6a10.16 10.16 0 00-3-7.13L279.91 23A10.15 10.15 0 00272.79 20H30.08A10.09 10.09 0 0020 30.08V332.85a10 10 0 01-20 0V30.08A30.11 30.11 0 0130.08 0H272.79a30.3 30.3 0 0121.27 8.81l58.51 58.52a30.25 30.25 0 018.82 21.27V333.11A10 10 0 01351.39 343.11z" class="color696969 svgShape"></path><path fill="#696969" d="M351.39,461.8H10a10,10,0,0,1-10-10V294.23a10,10,0,0,1,10-10H351.39a10,10,0,0,1,10,10V451.8A10,10,0,0,1,351.39,461.8ZM20,441.8H341.39V304.23H20Z" class="color696969 svgShape"></path><path fill="#f4ce92" d="M179.33 418c-7.35 0-7.83-.08-8.6-.22a10 10 0 01-8.19-9.84V338a10 10 0 0120 0v60c3.84 0 8.39 0 12.7 0h.06a10 10 0 01.06 20C187.93 418 182.85 418 179.33 418zm-6.14-20zM254.72 418a42.81 42.81 0 01-31.82-13.67 10 10 0 0114.82-13.43 23.11 23.11 0 0017 7.1c6 0 10.41-3.6 11-6.94.79-4.39-6.22-7.34-8.38-8.14-10.9-4-20.58-8.33-21-8.51a10.39 10.39 0 01-1.39-.76 23.49 23.49 0 01-10.48-23.25c1.41-9.84 8.59-17.85 18.73-20.91 19.76-5.95 36 7.45 36.7 8A10 10 0 01267.1 352.9c-.28-.21-8.93-7-18.13-4.23-3.8 1.15-4.55 3.6-4.69 4.6a3.57 3.57 0 001.14 3.31c2.63 1.15 10.45 4.51 18.84 7.6 18.39 6.79 23 20.17 21.15 30.43C283 408.18 270.08 418 254.72 418zM138.41 418a10 10 0 01-8.19-4.25L81 343.75a10 10 0 1116.36-11.5l49.26 70A10 10 0 01138.41 418z" class="colorffbb04 svgShape"></path><path fill="#f4ce92" d="M85.59,418a10,10,0,0,1-8.17-15.76l49.34-70a10,10,0,0,1,16.35,11.52l-49.33,70A10,10,0,0,1,85.59,418Z" class="colorffbb04 svgShape"></path><path fill="#696969" d="M140.53 70.2H60.2a10 10 0 010-20h80.33a10 10 0 010 20zM301.18 130.45H60.2a10 10 0 010-20h241a10 10 0 110 20zM301.18 190.69H60.2a10 10 0 110-20h241a10 10 0 010 20zM301.18 250.94H60.2a10 10 0 110-20h241a10 10 0 010 20z" class="color696969 svgShape"></path></g></g></svg>