<svg xmlns="http://www.w3.org/2000/svg" viewBox="0 0 64 64" id="FileError"><g data-name="Layer 23" fill="#1a1d24" class="color000000 svgShape"><path fill="#fce7c7" d="M55 56H21v2a4 4 0 0 1-4 4 4 4 0 0 1-4-4V6a4 4 0 0 0-4-4h40a6 6 0 0 1 6 6Z" class="colorc7e2fc svgShape"></path><path fill="#fdf0db" d="M48 11.5A38.117 38.117 0 0 0 46.8 2H9a4 4 0 0 1 4 4v43.8a38.7 38.7 0 0 0 35-38.3Z" class="colordbedfd svgShape"></path><path fill="#f2b451" d="M47 40.089a4.612 4.612 0 0 1-1.351 3.262l-.3.3A4.612 4.612 0 0 1 42.089 45H25.911a4.612 4.612 0 0 1-3.262-1.351l-.3-.3A4.612 4.612 0 0 1 21 40.089a4.615 4.615 0 0 1 .487-2.063l9.619-19.237A3.236 3.236 0 0 1 34 17a3.236 3.236 0 0 1 2.894 1.789l9.619 19.237A4.615 4.615 0 0 1 47 40.089Z" class="colorf2c351 svgShape"></path><path fill="#f4ce92" d="M36.894 18.789a3.235 3.235 0 0 0-5.788 0l-9.619 19.237a4.613 4.613 0 0 0 .864 5.325l.3.3A4.612 4.612 0 0 0 25.911 45h2.318a38.938 38.938 0 0 0 14.6-14.342Z" class="colorf5cf74 svgShape"></path><path fill="#bdad95" d="M55 56H21v2a4 4 0 0 1-4 4h38a4 4 0 0 0 4-4v-2zM9 2a4 4 0 0 1 4 4v8H5V6a4 4 0 0 1 4-4z" class="color95aabd svgShape"></path><path d="M59 55h-3V8a7.008 7.008 0 0 0-7-7H9a5.006 5.006 0 0 0-5 5v8a1 1 0 0 0 1 1h7v43a5.006 5.006 0 0 0 5 5h38a5.006 5.006 0 0 0 5-5v-2a1 1 0 0 0-1-1ZM12 13H6V6a3 3 0 0 1 6 0Zm8 43v2a3 3 0 0 1-6 0V6a4.948 4.948 0 0 0-1.026-3H49a5.006 5.006 0 0 1 5 5v47H21a1 1 0 0 0-1 1Zm38 2a3 3 0 0 1-3 3H21a4.98 4.98 0 0 0 1-3v-1h36Z" fill="#1a1d24" class="color000000 svgShape"></path><path d="M21.942 44.355A5.574 5.574 0 0 0 25.911 46h16.178a5.573 5.573 0 0 0 3.968-1.644l.3-.3A5.578 5.578 0 0 0 48 40.089a5.648 5.648 0 0 0-.592-2.51l-9.619-19.237a4.236 4.236 0 0 0-7.578 0l-9.619 19.237a5.648 5.648 0 0 0-.592 2.51 5.579 5.579 0 0 0 1.645 3.971Zm.439-5.881L32 19.236a2.236 2.236 0 0 1 4 0l9.619 19.238A3.635 3.635 0 0 1 46 40.089a3.592 3.592 0 0 1-1.057 2.555l-.3.3A3.589 3.589 0 0 1 42.089 44H25.911a3.59 3.59 0 0 1-2.556-1.06l-.3-.295A3.593 3.593 0 0 1 22 40.089a3.635 3.635 0 0 1 .381-1.615Z" fill="#1a1d24" class="color000000 svgShape"></path><path d="M34 35a1 1 0 0 0 1-1v-9a1 1 0 0 0-2 0v9a1 1 0 0 0 1 1zm0 5a1 1 0 0 0 1-1v-1a1 1 0 0 0-2 0v1a1 1 0 0 0 1 1z" fill="#1a1d24" class="color000000 svgShape"></path></g></svg>