<svg xmlns="http://www.w3.org/2000/svg" viewBox="0 0 1024 1024" id="no-data">
  <path d="M331.417 546.231C320.946 546.296 310.409 546.62 299.967 545.722C186.79 535.991 97.6159 443.133 91.2202 329.813C87.7709 268.697 109.378 205.817 150.352 160.147C190.782 115.083 248.995 89.6107 308.939 86.3706C321.095 85.6491 333.313 86.4359 345.359 87.9359C445.81 100.443 527.292 177.305 544.964 277.559C568.652 411.949 469.075 540.019 331.417 546.231ZM310.656 98.5253C255.871 99.9478 200.637 124.576 162.857 164.269C127.146 201.788 103.988 255.312 103.778 307.361L103.839 325.05C104.069 334.127 105.631 343.427 107.321 352.349C127.868 460.862 218.236 534.664 328.255 531.885C336.298 531.758 344.11 531.126 352.06 529.885C456.968 513.501 535.607 422.131 535.885 315.242C535.901 309.455 536.458 302.827 535.369 297.156L535.272 296.681C534.28 291.653 534.105 286.324 533.25 281.231C516.749 182.991 432.473 105.944 332.54 98.7754C325.295 98.2557 317.921 98.4666 310.656 98.5253Z" transform="scale(1.6)" fill="#52cc99" class="color000000 svgShape"></path>
  <path d="M178.533 370.915L159.802 232.878C158.008 221.525 155.478 209.603 159.671 198.432 167.579 177.358 184.73 172.909 204.398 172.924L220.905 172.961C230.647 173.01 254.503 174.195 262.661 176.474 281.133 181.634 290.491 195.682 299.379 211.562 308.923 228.615 311.611 231.174 332.353 231.211L381.743 231.243C385.432 231.243 385.294 230.91 387.564 228.542L434.783 179.21C437.594 176.149 439.954 173.062 443.832 171.316 446.235 171.002 448.364 171.025 450.443 172.419 458.693 177.953 449.255 186.018 445.13 190.304L206.719 436.276C198.806 443.7 188.392 438.589 185.512 428.728 183.919 423.276 184.439 417.07 183.808 411.435L178.533 370.915zM194.279 187.631C174.85 189.558 171.035 204.395 172.843 221.278L199.522 422.987 272.656 347.006 370.217 245.917 336.425 245.719C296.584 245.667 300.93 239.826 279.165 207.407 265.794 187.491 252.44 188.656 230.16 188.254L196.769 187.636C196.054 187.634 194.922 187.461 194.279 187.631zM232.255 464.235L224.551 471.804C219.61 476.601 209.771 483.08 207.388 472.504 206.079 466.696 215.218 460.318 218.704 456.831L372.578 299.437 460.481 207.003C464.843 202.449 470.349 194.381 476.793 192.855 482.516 193.369 487.776 197.542 483.594 203.529 481.417 206.645 478.404 209.376 475.782 212.134L456.954 231.374C476.442 236.035 487.881 251.267 485.612 271.823L466.515 411.851C465.55 419.461 465.518 427.934 463.269 435.257 454.94 462.372 425.142 457.94 403.195 457.939L282.011 457.943C269.782 457.946 252.822 459.852 241.242 456.217L232.255 464.235zM446.282 245.611C436.442 254.059 427.58 263.839 418.707 273.282L259.221 436.562C257.115 438.602 254.998 441.617 252.721 443.298L278.567 443.628 414.692 443.61C426.933 443.589 443.284 445.896 449.1 431.717 450.721 427.764 450.782 422.795 451.192 418.55L466.82 298.495C470.114 275.352 480.953 246.471 446.282 245.611z" transform="scale(1.6)" fill="#52cc99" class="color000000 svgShape"></path>
  <path d="M197.392 229.437C182.12 231.358 178.756 211.681 193.31 207.254C208.607 206.676 211.412 225.526 197.392 229.437Z" transform="scale(1.6)" fill="#52cc99" class="color000000 svgShape"></path>
</svg>
